<svg width="24" height="24" viewBox="0 0 24 24" fill="none" xmlns="http://www.w3.org/2000/svg">
<path d="M16 2H7C6.46957 2 5.96086 2.21071 5.58579 2.58579C5.21071 2.96086 5 3.46957 5 4V20C5 20.5304 5.21071 21.0391 5.58579 21.4142C5.96086 21.7893 6.46957 22 7 22H19C19.5304 22 20.0391 21.7893 20.4142 21.4142C20.7893 21.0391 21 20.5304 21 20V7L16 2Z" stroke="black" stroke-width="2" stroke-linecap="round" stroke-linejoin="round"/>
<path d="M15 2V6C15 6.53043 15.2107 7.03914 15.5858 7.41421C15.9609 7.78929 16.4696 8 17 8H21" stroke="black" stroke-width="2" stroke-linecap="round" stroke-linejoin="round"/>
<path d="M2 7.5H13C13.2761 7.5 13.5 7.72386 13.5 8V18C13.5 18.2761 13.2761 18.5 13 18.5H2C1.72386 18.5 1.5 18.2761 1.5 18V8C1.5 7.72386 1.72386 7.5 2 7.5Z" fill="black" stroke="black"/>
<path d="M4.41051 17L1.91761 8.81818H3.23864L5.0071 15.0824H5.09233L6.83949 8.81818H8.18182L9.90767 15.0611H9.9929L11.7614 8.81818H13.0824L10.5895 17H9.35369L7.56392 10.7145H7.43608L5.64631 17H4.41051Z" fill="white"/>
</svg>
