<svg width="959" height="867" viewBox="0 0 959 867" fill="none" xmlns="http://www.w3.org/2000/svg">
<path d="M906.963 730H469.062C455.258 729.988 442.024 724.937 432.263 715.956C422.503 706.975 417.013 694.798 417 682.097V55.3499C417.038 42.6775 422.52 30.5319 432.25 21.5628C441.98 12.5938 455.168 7.52729 468.941 7.46845L732.662 7.02627C742.734 7.00938 752.442 10.7931 759.847 17.6217L946.118 189.407C954.329 196.98 959 207.641 959 218.812V682.097C958.987 694.794 953.501 706.969 943.746 715.949C933.99 724.929 920.762 729.982 906.963 730ZM739.767 62.3477C732.363 55.5243 722.66 51.7435 712.592 51.76L469.062 52.1592C468.123 52.165 467.223 52.5089 466.556 53.1179C465.89 53.727 465.509 54.5525 465.497 55.4166V682.165C465.497 682.596 465.59 683.021 465.769 683.419C465.948 683.817 466.211 684.179 466.542 684.484C466.873 684.789 467.265 685.03 467.697 685.195C468.13 685.36 468.594 685.444 469.062 685.444H906.963C907.904 685.438 908.804 685.09 909.467 684.476C910.131 683.861 910.503 683.031 910.503 682.165V237.247C910.503 226.073 905.829 215.408 897.613 207.835L739.767 62.3477Z" fill="black"/>
<path d="M739.767 62.3477C732.363 55.5243 722.66 51.7435 712.592 51.76L469.062 52.1592C468.123 52.165 467.223 52.5089 466.556 53.1179C465.89 53.727 465.509 54.5525 465.497 55.4166V682.165C465.497 682.596 465.59 683.021 465.769 683.419C465.948 683.817 466.211 684.179 466.542 684.484C466.873 684.789 467.265 685.03 467.697 685.195C468.13 685.36 468.594 685.444 469.062 685.444H906.963C907.904 685.438 908.804 685.09 909.467 684.476C910.131 683.861 910.503 683.031 910.503 682.165V237.247C910.503 226.073 905.829 215.408 897.613 207.835L739.767 62.3477Z" fill="white"/>
<path d="M931.325 232.807H931.009L757.003 230.799C743.973 230.611 731.554 225.681 722.465 217.088C713.376 208.495 708.357 196.939 708.506 184.949L710.689 29.0597C710.644 26.1059 711.252 23.1752 712.478 20.4451C713.705 17.715 715.523 15.2426 717.821 13.18C720.12 11.1174 722.85 9.50757 725.847 8.44784C728.844 7.38811 732.045 6.90119 735.253 7.01662C738.437 7.05446 741.581 7.6687 744.507 8.82505C747.433 9.98141 750.084 11.6573 752.307 13.756C754.529 15.8548 756.28 18.3349 757.46 21.0565C758.64 23.7782 759.227 26.688 759.186 29.618L757.003 185.484L931.712 188.185C938.143 188.223 944.294 190.611 948.812 194.822C953.33 199.033 955.844 204.723 955.802 210.64C955.761 216.558 953.166 222.217 948.589 226.374C944.012 230.531 937.828 232.846 931.397 232.807H931.325Z" fill="black"/>
<path d="M697.261 287H529.747C526.075 287 522.554 284.998 519.958 281.435C517.361 277.872 515.903 273.039 515.903 268C515.903 262.961 517.361 258.128 519.958 254.565C522.554 251.002 526.075 249 529.747 249H697.261C700.933 249 704.454 251.002 707.05 254.565C709.647 258.128 711.105 262.961 711.105 268C711.105 273.039 709.647 277.872 707.05 281.435C704.454 284.998 700.933 287 697.261 287Z" fill="black"/>
<path d="M697.261 385H529.747C526.075 385 522.554 382.998 519.958 379.435C517.361 375.872 515.903 371.039 515.903 366C515.903 360.961 517.361 356.128 519.958 352.565C522.554 349.002 526.075 347 529.747 347H697.261C700.933 347 704.454 349.002 707.05 352.565C709.647 356.128 711.105 360.961 711.105 366C711.105 371.039 709.647 375.872 707.05 379.435C704.454 382.998 700.933 385 697.261 385Z" fill="black"/>
<path d="M845.615 385H678.101C674.429 385 670.908 382.998 668.312 379.435C665.716 375.872 664.257 371.039 664.257 366C664.257 360.961 665.716 356.128 668.312 352.565C670.908 349.002 674.429 347 678.101 347H845.615C849.287 347 852.808 349.002 855.405 352.565C858.001 356.128 859.46 360.961 859.46 366C859.46 371.039 858.001 375.872 855.405 379.435C852.808 382.998 849.287 385 845.615 385Z" fill="black"/>
<path d="M697.261 483H529.747C526.075 483 522.554 480.998 519.958 477.435C517.361 473.872 515.903 469.039 515.903 464C515.903 458.961 517.361 454.128 519.958 450.565C522.554 447.002 526.075 445 529.747 445H697.261C700.933 445 704.454 447.002 707.05 450.565C709.647 454.128 711.105 458.961 711.105 464C711.105 469.039 709.647 473.872 707.05 477.435C704.454 480.998 700.933 483 697.261 483Z" fill="black"/>
<path d="M845.615 483H678.101C674.429 483 670.908 480.998 668.312 477.435C665.716 473.872 664.257 469.039 664.257 464C664.257 458.961 665.716 454.128 668.312 450.565C670.908 447.002 674.429 445 678.101 445H845.615C849.287 445 852.808 447.002 855.405 450.565C858.001 454.128 859.46 458.961 859.46 464C859.46 469.039 858.001 473.872 855.405 477.435C852.808 480.998 849.287 483 845.615 483Z" fill="black"/>
<path d="M697.261 581H529.747C526.075 581 522.554 578.998 519.958 575.435C517.361 571.872 515.903 567.039 515.903 562C515.903 556.961 517.361 552.128 519.958 548.565C522.554 545.002 526.075 543 529.747 543H697.261C700.933 543 704.454 545.002 707.05 548.565C709.647 552.128 711.105 556.961 711.105 562C711.105 567.039 709.647 571.872 707.05 575.435C704.454 578.998 700.933 581 697.261 581Z" fill="black"/>
<path d="M845.615 581H678.101C674.429 581 670.908 578.998 668.312 575.435C665.716 571.872 664.257 567.039 664.257 562C664.257 556.961 665.716 552.128 668.312 548.565C670.908 545.002 674.429 543 678.101 543H845.615C849.287 543 852.808 545.002 855.405 548.565C858.001 552.128 859.46 556.961 859.46 562C859.46 567.039 858.001 571.872 855.405 575.435C852.808 578.998 849.287 581 845.615 581Z" fill="black"/>
<path d="M489.963 723H52.062C38.2584 722.988 25.0238 717.937 15.2632 708.956C5.50267 699.975 0.0128405 687.798 0 675.097V48.3499C0.0382509 35.6775 5.52035 23.5319 15.2499 14.5628C24.9795 5.59375 38.1682 0.527289 51.9406 0.468451L315.662 0.0262697C325.734 0.00938126 335.442 3.79313 342.847 10.6217L529.118 182.407C537.329 189.98 542 200.641 542 211.812V675.097C541.987 687.794 536.501 699.969 526.746 708.949C516.99 717.929 503.762 722.982 489.963 723ZM322.767 55.3477C315.363 48.5243 305.66 44.7435 295.592 44.76L52.062 45.1592C51.1227 45.165 50.2228 45.5089 49.5564 46.1179C48.8899 46.727 48.5093 47.5525 48.4967 48.4166V675.165C48.4967 675.596 48.5899 676.021 48.769 676.419C48.9481 676.817 49.2106 677.179 49.5416 677.484C49.8725 677.789 50.265 678.03 50.6974 678.195C51.1299 678.36 51.5939 678.444 52.062 678.444H489.963C490.904 678.438 491.804 678.09 492.467 677.476C493.131 676.861 493.503 676.031 493.503 675.165V230.247C493.503 219.073 488.829 208.408 480.613 200.835L322.767 55.3477Z" fill="black"/>
<path d="M322.767 55.3477C315.363 48.5243 305.66 44.7435 295.592 44.76L52.062 45.1592C51.1227 45.165 50.2228 45.5089 49.5564 46.1179C48.8899 46.727 48.5093 47.5525 48.4967 48.4166V675.165C48.4967 675.596 48.5899 676.021 48.769 676.419C48.9481 676.817 49.2106 677.179 49.5416 677.484C49.8725 677.789 50.265 678.03 50.6974 678.195C51.1299 678.36 51.5939 678.444 52.062 678.444H489.963C490.904 678.438 491.804 678.09 492.467 677.476C493.131 676.861 493.503 676.031 493.503 675.165V230.247C493.503 219.073 488.829 208.408 480.613 200.835L322.767 55.3477Z" fill="#0D7DC5"/>
<path d="M516.884 231.813H516.569L342.562 229.805C329.532 229.617 317.114 224.687 308.025 216.094C298.936 207.501 293.916 195.945 294.065 183.955L296.248 28.0657C296.203 25.1119 296.812 22.1812 298.038 19.4511C299.264 16.7209 301.082 14.2486 303.381 12.186C305.679 10.1234 308.41 8.51356 311.407 7.45382C314.404 6.39409 317.604 5.90717 320.812 6.0226C323.996 6.06044 327.14 6.67468 330.067 7.83104C332.993 8.98739 335.644 10.6632 337.866 12.762C340.089 14.8608 341.839 17.3409 343.019 20.0625C344.2 22.7841 344.787 25.694 344.745 28.624L342.562 183.955L517.272 187.191C523.703 187.229 529.854 189.617 534.372 193.828C538.89 198.039 541.404 203.729 541.362 209.646C541.32 215.564 538.725 221.223 534.148 225.38C529.571 229.537 523.388 231.852 516.957 231.813H516.884Z" fill="black"/>
<path d="M418.094 574H123.268C116.806 574 110.609 571.998 106.04 568.435C101.47 564.872 98.9027 560.039 98.9027 555C98.9027 549.961 101.47 545.128 106.04 541.565C110.609 538.002 116.806 536 123.268 536H418.094C424.556 536 430.753 538.002 435.323 541.565C439.892 545.128 442.46 549.961 442.46 555C442.46 560.039 439.892 564.872 435.323 568.435C430.753 571.998 424.556 574 418.094 574Z" fill="black"/>
<path d="M418.094 476H123.268C116.806 476 110.609 473.998 106.04 470.435C101.47 466.872 98.9027 462.039 98.9027 457C98.9027 451.961 101.47 447.128 106.04 443.565C110.609 440.002 116.806 438 123.268 438H418.094C424.556 438 430.753 440.002 435.323 443.565C439.892 447.128 442.46 451.961 442.46 457C442.46 462.039 439.892 466.872 435.323 470.435C430.753 473.998 424.556 476 418.094 476Z" fill="black"/>
<path d="M418.094 378H123.268C116.806 378 110.609 375.998 106.04 372.435C101.47 368.872 98.9027 364.039 98.9027 359C98.9027 353.961 101.47 349.128 106.04 345.565C110.609 342.002 116.806 340 123.268 340H418.094C424.556 340 430.753 342.002 435.323 345.565C439.892 349.128 442.46 353.961 442.46 359C442.46 364.039 439.892 368.872 435.323 372.435C430.753 375.998 424.556 378 418.094 378Z" fill="black"/>
<path d="M280.261 280H112.747C109.075 280 105.554 277.998 102.958 274.435C100.361 270.872 98.9027 266.039 98.9027 261C98.9027 255.961 100.361 251.128 102.958 247.565C105.554 244.002 109.075 242 112.747 242H280.261C283.933 242 287.454 244.002 290.05 247.565C292.647 251.128 294.105 255.961 294.105 261C294.105 266.039 292.647 270.872 290.05 274.435C287.454 277.998 283.933 280 280.261 280Z" fill="black"/>
<path d="M280.261 378H112.747C109.075 378 105.554 375.998 102.958 372.435C100.361 368.872 98.9027 364.039 98.9027 359C98.9027 353.961 100.361 349.128 102.958 345.565C105.554 342.002 109.075 340 112.747 340H280.261C283.933 340 287.454 342.002 290.05 345.565C292.647 349.128 294.105 353.961 294.105 359C294.105 364.039 292.647 368.872 290.05 372.435C287.454 375.998 283.933 378 280.261 378Z" fill="black"/>
<path d="M428.615 378H261.101C257.429 378 253.908 375.998 251.312 372.435C248.716 368.872 247.257 364.039 247.257 359C247.257 353.961 248.716 349.128 251.312 345.565C253.908 342.002 257.429 340 261.101 340H428.615C432.287 340 435.808 342.002 438.405 345.565C441.001 349.128 442.46 353.961 442.46 359C442.46 364.039 441.001 368.872 438.405 372.435C435.808 375.998 432.287 378 428.615 378Z" fill="black"/>
<path d="M280.261 476H112.747C109.075 476 105.554 473.998 102.958 470.435C100.361 466.872 98.9027 462.039 98.9027 457C98.9027 451.961 100.361 447.128 102.958 443.565C105.554 440.002 109.075 438 112.747 438H280.261C283.933 438 287.454 440.002 290.05 443.565C292.647 447.128 294.105 451.961 294.105 457C294.105 462.039 292.647 466.872 290.05 470.435C287.454 473.998 283.933 476 280.261 476Z" fill="black"/>
<path d="M428.615 476H261.101C257.429 476 253.908 473.998 251.312 470.435C248.716 466.872 247.257 462.039 247.257 457C247.257 451.961 248.716 447.128 251.312 443.565C253.908 440.002 257.429 438 261.101 438H428.615C432.287 438 435.808 440.002 438.405 443.565C441.001 447.128 442.46 451.961 442.46 457C442.46 462.039 441.001 466.872 438.405 470.435C435.808 473.998 432.287 476 428.615 476Z" fill="black"/>
<path d="M280.261 574H112.747C109.075 574 105.554 571.998 102.958 568.435C100.361 564.872 98.9027 560.039 98.9027 555C98.9027 549.961 100.361 545.128 102.958 541.565C105.554 538.002 109.075 536 112.747 536H280.261C283.933 536 287.454 538.002 290.05 541.565C292.647 545.128 294.105 549.961 294.105 555C294.105 560.039 292.647 564.872 290.05 568.435C287.454 571.998 283.933 574 280.261 574Z" fill="black"/>
<path d="M428.615 574H261.101C257.429 574 253.908 571.998 251.312 568.435C248.716 564.872 247.257 560.039 247.257 555C247.257 549.961 248.716 545.128 251.312 541.565C253.908 538.002 257.429 536 261.101 536H428.615C432.287 536 435.808 538.002 438.405 541.565C441.001 545.128 442.46 549.961 442.46 555C442.46 560.039 441.001 564.872 438.405 568.435C435.808 571.998 432.287 574 428.615 574Z" fill="black"/>
<path d="M536.384 506.5C525.686 506.567 515.064 507.034 503.839 509.704C492.614 512.373 481.39 516.644 469.487 523.585C454.721 515.91 440.407 509.57 426.696 508.102C409.671 506.233 393.85 507.234 375.469 507.568C353.697 507.968 339.459 517.846 316.406 525.721C293.354 533.596 263.672 541.204 221.786 541.204L202.5 547.623V712.068L213.348 710.455L248.906 725.939L375.469 850.875L376.071 851.408C390.536 864.089 410.047 867.226 427.299 866.358C444.551 865.49 460.748 861.019 473.705 854.078C502.182 838.861 579.777 791.076 579.777 791.076L581.585 790.008L582.79 788.941C591.981 780.865 596.576 770.988 599.665 760.643L673.795 727.54L729.241 710.989L742.5 717.5V547.623H723.91C682.099 547.623 651.646 533.196 628.594 525.187C605.541 517.178 591.529 507.434 569.531 507.034C557.779 506.834 547.081 506.433 536.384 506.5ZM536.987 540.671C545.65 540.604 555.67 541.004 568.326 541.204C570.36 541.271 588.892 548.279 614.732 557.222C636.579 564.83 705.511 578.798 742.5 581V685.5L659.33 696.04H658.125L656.92 696.573L598.46 722.735C595.22 714.927 590.776 707.719 583.996 701.379L582.79 699.777L500.826 610.613L488.772 597.265L473.705 607.944L421.875 645.318C404.473 655.996 390.385 652.926 376.071 646.919C371.928 645.184 372.154 644.65 368.839 642.648L456.83 578.045L458.036 576.977C484.177 554.018 500.223 546.076 514.085 542.806C521.016 541.138 528.323 540.737 536.987 540.671ZM402.589 541.204C409.972 541.071 416.15 541.138 421.875 541.738C426.922 542.272 432.648 546.076 437.545 547.611C435.586 549.213 434.155 550.148 432.121 551.883C431.669 552.283 431.367 552.55 430.915 552.951L325.446 630.368L309.174 642.114L323.638 655.462C323.638 655.462 337.575 668.81 359.196 677.886C380.818 686.963 414.191 692.102 444.174 673.615L445.379 672.547L482.746 645.318L553.862 722.735L554.464 723.803L555.067 724.337C567.799 735.482 567.497 753.035 555.067 764.38C554.916 764.514 555.218 764.781 555.067 764.914C554.916 764.981 552.355 766.316 552.054 766.516L526.741 736.083L495.402 756.372L520.112 785.737C510.092 791.744 505.572 794.88 494.799 801.221L468.884 770.254L437.545 790.542L462.254 819.908C460.07 821.109 455.55 823.778 453.817 824.713C447.715 827.983 435.963 831.654 425.491 832.188C415.622 832.655 408.089 830.653 404.397 827.916L403.795 827.382L274.821 700.845L272.411 698.175L237.5 685L202.5 678.5V574C239.339 571.864 308.496 565.164 330.268 557.756C356.032 549.013 374.414 541.805 376.674 541.738C386.543 541.538 395.206 541.338 402.589 541.204Z" fill="black"/>
<path d="M536.987 540.671C545.65 540.604 555.67 541.004 568.326 541.204C570.36 541.271 588.892 548.279 614.732 557.222C636.579 564.83 705.511 578.798 742.5 581V685.5L659.33 696.04H658.125L656.92 696.573L598.46 722.735C595.22 714.927 590.776 707.719 583.996 701.379L582.79 699.777L500.826 610.613L488.772 597.265L473.705 607.944L421.875 645.318C404.473 655.996 390.385 652.926 376.071 646.919C371.928 645.184 372.154 644.65 368.839 642.648L456.83 578.045L458.036 576.977C484.177 554.018 500.223 546.076 514.085 542.806C521.016 541.138 528.323 540.737 536.987 540.671Z" fill="white"/>
<path d="M402.589 541.204C409.972 541.071 416.15 541.138 421.875 541.738C426.922 542.272 432.648 546.076 437.545 547.611C435.586 549.213 434.155 550.148 432.121 551.883L430.915 552.951L325.446 630.368L309.174 642.114L323.638 655.462C323.638 655.462 337.575 668.81 359.196 677.886C380.818 686.963 414.191 692.102 444.174 673.615L445.379 672.547L482.746 645.318L553.862 722.735L554.464 723.803L555.067 724.337C567.799 735.482 567.497 753.035 555.067 764.38C554.916 764.514 555.218 764.781 555.067 764.914C554.916 764.981 552.355 766.316 552.054 766.516L526.741 736.083L495.402 756.372L520.112 785.737C510.092 791.744 505.572 794.88 494.799 801.221L468.884 770.254L437.545 790.542L462.254 819.908C460.07 821.109 455.55 823.778 453.817 824.713C447.715 827.983 435.963 831.654 425.491 832.188C415.622 832.655 408.089 830.653 404.397 827.916L403.795 827.382L274.821 700.845L272.411 698.175L237.5 685L202.5 678.5V574C239.339 571.864 308.496 565.164 330.268 557.756C356.032 549.013 374.414 541.805 376.674 541.738C386.543 541.538 395.206 541.338 402.589 541.204Z" fill="#0D7DC5"/>
</svg>
